<svg xmlns="http://www.w3.org/2000/svg" viewBox="0 0 80 80" fill="none">
  <defs>
    <linearGradient id="shieldGradient" x1="0%" y1="0%" x2="100%" y2="100%">
      <stop offset="0%" style="stop-color:#0D9488"/>
      <stop offset="50%" style="stop-color:#14B8A6"/>
      <stop offset="100%" style="stop-color:#5EEAD4"/>
    </linearGradient>
    <linearGradient id="arrowGradient" x1="0%" y1="100%" x2="100%" y2="0%">
      <stop offset="0%" style="stop-color:#0D9488"/>
      <stop offset="100%" style="stop-color:#14B8A6"/>
    </linearGradient>
  </defs>
  
  <!-- Shield Background -->
  <path d="M10 18 L40 8 L70 18 L70 48 C70 62 40 75 40 75 C40 75 10 62 10 48 Z" 
        fill="url(#shieldGradient)" opacity="0.9"/>
  
  <!-- Shield Outline -->
  <path d="M10 18 L40 8 L70 18 L70 48 C70 62 40 75 40 75 C40 75 10 62 10 48 Z" 
        fill="none" stroke="url(#shieldGradient)" stroke-width="3"/>
  
  <!-- Inner Shield Highlight -->
  <path d="M18 24 L40 16 L62 24 L62 46 C62 56 40 66 40 66 C40 66 18 56 18 46 Z" 
        fill="none" stroke="#5EEAD4" stroke-width="2" opacity="0.6"/>
  
  <!-- Checkmark -->
  <path d="M26 42 L36 52 L56 30" 
        fill="none" stroke="white" stroke-width="5" stroke-linecap="round" stroke-linejoin="round"/>
  
  <!-- Arrow -->
  <path d="M55 22 L55 7 L70 7" 
        fill="none" stroke="url(#arrowGradient)" stroke-width="4" stroke-linecap="round" stroke-linejoin="round"/>
  <polygon points="70,7 64,4 64,10" fill="#0D9488"/>
</svg>
