<svg xmlns="http://www.w3.org/2000/svg" viewBox="0 0 32 32" fill="none">
  <defs>
    <linearGradient id="shieldGradient" x1="0%" y1="0%" x2="100%" y2="100%">
      <stop offset="0%" style="stop-color:#0D9488"/>
      <stop offset="50%" style="stop-color:#14B8A6"/>
      <stop offset="100%" style="stop-color:#5EEAD4"/>
    </linearGradient>
    <linearGradient id="arrowGradient" x1="0%" y1="100%" x2="100%" y2="0%">
      <stop offset="0%" style="stop-color:#0D9488"/>
      <stop offset="100%" style="stop-color:#14B8A6"/>
    </linearGradient>
  </defs>
  
  <!-- Shield Background -->
  <path d="M4 7 L16 3 L28 7 L28 18 C28 25 16 30 16 30 C16 30 4 25 4 18 Z" 
        fill="url(#shieldGradient)" opacity="0.9"/>
  
  <!-- Shield Outline -->
  <path d="M4 7 L16 3 L28 7 L28 18 C28 25 16 30 16 30 C16 30 4 25 4 18 Z" 
        fill="none" stroke="url(#shieldGradient)" stroke-width="1.5"/>
  
  <!-- Checkmark -->
  <path d="M10 16 L14 20 L23 11" 
        fill="none" stroke="white" stroke-width="2.5" stroke-linecap="round" stroke-linejoin="round"/>
  
  <!-- Arrow -->
  <path d="M22 9 L22 3 L28 3" 
        fill="none" stroke="url(#arrowGradient)" stroke-width="2" stroke-linecap="round" stroke-linejoin="round"/>
  <polygon points="28,3 25,1 25,5" fill="#0D9488"/>
</svg>
